<svg xmlns="http://www.w3.org/2000/svg" xmlns:xlink="http://www.w3.org/1999/xlink" width="512" zoomAndPan="magnify" viewBox="0 0 384 383.999986" height="512" preserveAspectRatio="xMidYMid meet" version="1.0"><defs><clipPath id="id1"><path d="M 21.113281 21.113281 L 363.113281 21.113281 L 363.113281 363.113281 L 21.113281 363.113281 Z M 21.113281 21.113281 " clip-rule="nonzero"/></clipPath></defs><g clip-path="url(#id1)"><path fill="rgb(100%, 100%, 100%)" d="M 192.113281 21.113281 C 97.824219 21.113281 21.113281 97.824219 21.113281 192.113281 C 21.113281 286.402344 97.824219 363.113281 192.113281 363.113281 C 286.402344 363.113281 363.113281 286.402344 363.113281 192.113281 C 363.113281 97.824219 286.402344 21.113281 192.113281 21.113281 Z M 266.636719 113.09375 L 184.554688 277.253906 C 183.570312 279.214844 181.703125 280.589844 179.535156 280.945312 C 179.160156 281.007812 178.796875 281.035156 178.433594 281.035156 C 176.636719 281.035156 174.890625 280.324219 173.597656 279.03125 L 118.878906 224.308594 C 116.203125 221.636719 116.203125 217.3125 118.878906 214.636719 C 121.554688 211.964844 125.875 211.964844 128.550781 214.636719 L 176.558594 262.648438 L 254.398438 106.976562 C 256.097656 103.597656 260.199219 102.230469 263.578125 103.917969 C 266.949219 105.609375 268.324219 109.714844 266.636719 113.09375 Z M 266.636719 113.09375 " fill-opacity="1" fill-rule="nonzero"/></g></svg>